<svg xmlns="http://www.w3.org/2000/svg" viewBox="0 0 64 64" width="64" height="64">
  <defs>
    <linearGradient id="g" x1="0" y1="0" x2="1" y2="1">
      <stop offset="0" stop-color="#6c8cff"/>
      <stop offset="1" stop-color="#4cd6b4"/>
    </linearGradient>
  </defs>
  <rect width="64" height="64" rx="14" fill="#0b1020"/>
  <path d="M32 14a9 9 0 0 1 9 9v5h2a3 3 0 0 1 3 3v13a3 3 0 0 1-3 3H21a3 3 0 0 1-3-3V31a3 3 0 0 1 3-3h2v-5a9 9 0 0 1 9-9zm0 5a4 4 0 0 0-4 4v5h8v-5a4 4 0 0 0-4-4z" fill="url(#g)"/>
</svg>
